<svg xmlns="http://www.w3.org/2000/svg" width="12" height="12" viewBox="0 0 12 12">
    <path fill="#00b8ff" fill-rule="evenodd" d="M.417 12a.42.42 0 0 1-.409-.501L.6 8.534a.416.416 0 0 1 .115-.215L7.23 1.8a.419.419 0 0 1 .592 0l2.371 2.368a.419.419 0 0 1 0 .593l-6.516 6.525a.417.417 0 0 1-.215.114L.5 11.992A.402.402 0 0 1 .417 12zm.981-3.178l-.446 2.224 2.223-.444 6.132-6.135-1.776-1.78-6.133 6.135zm9.69-5.122a.42.42 0 0 1-.296-.716 1.256 1.256 0 0 0 0-1.778 1.26 1.26 0 0 0-1.779 0A.42.42 0 0 1 8.42.613a2.1 2.1 0 0 1 2.966.001 2.093 2.093 0 0 1-.001 2.963.418.418 0 0 1-.297.123z"/>
</svg>
