<svg xmlns="http://www.w3.org/2000/svg" width="142" height="33" viewBox="0 0 142 33">
  <g fill="#FFF">
    <path d="M15.12 1L1 5.532V7.03c0 6.167.737 10.83 2.255 14.26.278.628.59 1.24.935 1.832l.073.126.124-.078c.188-.117.487-.318.777-.514.252-.17.492-.33.644-.423l.114-.072-.068-.115c-.29-.502-.552-1.02-.787-1.55C3.663 17.317 2.98 12.915 2.98 7.03v-.052l12.14-3.896 12.137 3.893v.055c.006 1.96-.088 3.92-.282 5.87l-.017.156h1.997l.012-.127c.18-1.796.272-3.78.272-5.9v-1.5L15.12 1zm11.753 13.7h-.12l-.02.12c-.343 2.2-.867 4.105-1.558 5.666a17.003 17.003 0 0 1-2.825 4.398 18.202 18.202 0 0 1-3.227 2.863 16.96 16.96 0 0 1-3.99 2.094h-.013l-.038-.01a16.806 16.806 0 0 1-3.972-2.09 18.194 18.194 0 0 1-3.224-2.86 16.33 16.33 0 0 1-.906-1.13l-.083-.11-1.61 1.153.085.116c.354.476.69.895 1.03 1.277a20.19 20.19 0 0 0 3.574 3.174c2.23 1.56 4.128 2.233 4.48 2.36.015 0 .366.125.542.175l.09.022h.06s.05-.01.095-.024c.176-.05.527-.172.54-.176.356-.118 2.243-.786 4.472-2.34a20.192 20.192 0 0 0 3.577-3.173 18.98 18.98 0 0 0 3.155-4.912c.794-1.793 1.362-3.877 1.736-6.373l.023-.15-.152-.013a23.297 23.297 0 0 0-1.72-.056z"/>
    <path d="M14.304 6.918s.443 1.143.675 1.243l3.195 1.415s-1.642.36-2.55.634l-.214.065c.228.364.53.676.887.915.593-.17 1.69-.452 1.69-.452a9.208 9.208 0 0 1-8.157 5.016c-.157 0-.815-.008-1.23.026-.356.03-.528.325-.177.482a2.665 2.665 0 0 1 1.29 1.564c.127.41-.098.658-.38.883-1.382 1.063-7.544 5.634-7.544 5.634.28.494.6.967.6.967l7.762-5.55a25.197 25.197 0 0 1 14.122-4.3h6.06l.178-1.126H24.27c-2.66-.05-3.43.05-4.074-.41a2.65 2.65 0 0 1-1.077-2.14c0-.264.14-.78.24-1.112.047-.165.057-.246.244-.282.912-.183 1.31-.155 1.387-.263.165-.3.28-.624.346-.96l-7.033-2.25zm79.328-1.39h2.15v21.858h-2.15zM75.03 20.912a5.184 5.184 0 0 0-1.345-1.036l-.027-.015a10.802 10.802 0 0 0-2.264-.954c-.497-.163-1.062-.348-1.797-.66-.913-.387-1.203-.593-1.445-.86a1.77 1.77 0 0 1-.457-.79 1.6 1.6 0 0 1 .14-1.075c.324-.65.997-.93 1.32-1.062a3.88 3.88 0 0 1 1.44-.254h.03c1.448 0 2.65.628 3.4 1.155l.117.08 1.237-1.757-.118-.08c-1.006-.705-2.626-1.55-4.634-1.55h-.04a6.027 6.027 0 0 0-2.255.422c-.476.197-1.743.72-2.424 2.097a3.762 3.762 0 0 0-.31 2.52c.162.654.492 1.256.96 1.745.502.553 1.076.917 2.195 1.392.82.347 1.43.547 1.973.723a8.81 8.81 0 0 1 1.86.777l.03.017c.3.158.575.363.81.608.215.227.37.504.452.806.087.374.048.765-.11 1.114a2.38 2.38 0 0 1-.68.894c-.33.267-.714.46-1.126.564-.704.204-1.293.14-1.973.08a7.555 7.555 0 0 1-2.033-.48 6.972 6.972 0 0 1-1.792-1.036l-.11-.088-1.343 1.68.11.086a9.112 9.112 0 0 0 2.343 1.358c.84.327 1.72.536 2.618.622.34.034.727.07 1.142.07a5.793 5.793 0 0 0 1.64-.228 5.018 5.018 0 0 0 1.905-.972 4.574 4.574 0 0 0 1.295-1.742c.34-.783.408-1.658.194-2.484a4.047 4.047 0 0 0-.934-1.683zm10.727-8.77a6.224 6.224 0 0 0-3.523.813c-.62.37-1.21.788-1.763 1.253V5.53h-2.15v21.858h2.15V17.035c.62-.696 1.68-1.66 2.703-2.146.705-.34 1.447-.69 2.413-.61.845.07 1.478.33 1.888.77.22.235.586.63.586 2.087v10.25h2.148v-10.25c0-2.305-.793-3.156-1.174-3.565-.53-.572-1.54-1.286-3.277-1.433zm35.144 0a6.23 6.23 0 0 0-3.52.813c-.632.375-1.232.802-1.794 1.275l-.127-1.244h-1.995V27.39h2.15V17.035c.615-.696 1.677-1.66 2.7-2.146.704-.34 1.446-.69 2.41-.61.847.07 1.48.33 1.89.77.22.235.587.63.587 2.087v10.25h2.15v-10.25c0-2.305-.793-3.156-1.174-3.565-.535-.572-1.537-1.286-3.275-1.433zm19.88 7.536a11.65 11.65 0 0 0-.366-3.1c-.4-1.41-1.335-2.766-2.438-3.55a4.932 4.932 0 0 0-1.677-.753l-.05-.013a6.666 6.666 0 0 0-2.093-.2 6.596 6.596 0 0 0-1.94.407c-.675.262-1.3.64-1.847 1.116a6.924 6.924 0 0 0-1.44 1.656 7.14 7.14 0 0 0-.896 2.138 10.145 10.145 0 0 0-.316 2.222c-.045.824.002 1.65.14 2.464.125.827.396 1.625.803 2.355.44.79 1.02 1.49 1.718 2.065a7.588 7.588 0 0 0 2.537 1.294 6.656 6.656 0 0 0 1.896.26c.3 0 .565-.015.77-.03a8.877 8.877 0 0 0 2.224-.413 8.07 8.07 0 0 0 2.188-1.127l.116-.083-1.27-1.74-.113.082a5.918 5.918 0 0 1-1.606.822 6.754 6.754 0 0 1-1.674.307c-.55.033-1.173.07-1.933-.15a5.378 5.378 0 0 1-1.8-.916 5.104 5.104 0 0 1-1.185-1.45 4.913 4.913 0 0 1-.563-1.68 7.07 7.07 0 0 1-.103-.92h10.92v-1.07zM129.967 18.6c.036-.228.083-.454.14-.677l.01-.034a4.895 4.895 0 0 1 1.624-2.65c.366-.325.785-.58 1.24-.76a4.436 4.436 0 0 1 1.294-.266c.474-.03.95.015 1.41.133l.06.016c.35.077.685.22.984.423.712.504 1.346 1.44 1.615 2.384.127.47.208.95.243 1.437l-8.62-.007zM59.88 12.51a8.053 8.053 0 0 0-2.82-.488c-2.196 0-4.085.775-5.475 2.242l-.095.1 1.562 1.478.096-.102c.97-1.027 2.324-1.57 3.914-1.57a5.918 5.918 0 0 1 2.065.357c1.526.57 1.644 1.56 1.644 2.896v.11c-1.04.14-2.065.322-3.044.538-2.138.47-3.09.847-3.864 1.27-1.443.78-1.972 1.503-2.24 1.973a4.368 4.368 0 0 0-.536 2.523c.037.67.236 1.323.582 1.9a4.492 4.492 0 0 0 1.892 1.698 4.663 4.663 0 0 0 2.026.442 8.788 8.788 0 0 0 1.28-.11 8.525 8.525 0 0 0 3.38-1.27c.196-.13.38-.28.55-.44l.125 1.338h1.997v-9.976c.004-1.223.004-3.77-3.037-4.908zm-5.402 12.978a2.317 2.317 0 0 1-.97-.862 2.053 2.053 0 0 1-.282-.957c-.047-.45.044-.9.26-1.297.08-.14.327-.573 1.398-1.15.53-.283 1.298-.614 3.303-1.057a34.837 34.837 0 0 1 2.584-.466v3.784a9.087 9.087 0 0 1-1.532 1.114l-.062.036c-.616.354-1.46.84-2.614 1.006-.735.105-1.4.168-2.082-.152zm52.52-12.978a8.053 8.053 0 0 0-2.82-.488c-2.196 0-4.086.775-5.475 2.242l-.096.1 1.563 1.478.096-.102c.97-1.027 2.323-1.57 3.914-1.57a5.918 5.918 0 0 1 2.064.357c1.526.57 1.645 1.56 1.645 2.896v.11c-1.045.14-2.07.322-3.05.538-2.136.47-3.09.847-3.862 1.27-1.446.78-1.974 1.503-2.243 1.973a4.368 4.368 0 0 0-.536 2.523c.04.67.24 1.322.59 1.897a4.492 4.492 0 0 0 1.9 1.7 4.663 4.663 0 0 0 2.024.443 8.788 8.788 0 0 0 1.28-.11 8.525 8.525 0 0 0 3.38-1.27c.195-.13.378-.28.55-.44l.124 1.338h1.996v-9.976c-.008-1.223-.008-3.77-3.05-4.908zm-5.402 12.978a2.317 2.317 0 0 1-.97-.862 2.053 2.053 0 0 1-.283-.957c-.046-.45.045-.9.26-1.297.08-.14.328-.573 1.4-1.15.53-.283 1.296-.614 3.302-1.057a34.706 34.706 0 0 1 2.584-.466v3.784a9.087 9.087 0 0 1-1.537 1.114l-.062.036c-.614.354-1.457.84-2.613 1.006-.735.105-1.4.168-2.082-.153zM46.513 13.042a6.623 6.623 0 0 0-.91-.47l-.06-.026a6.06 6.06 0 0 0-2.773-.514 7.398 7.398 0 0 0-3.1.828 7.02 7.02 0 0 0-3.277 3.578 9.265 9.265 0 0 0-.657 3.607v.04a8.437 8.437 0 0 0 .65 3.383 7.175 7.175 0 0 0 1.96 2.677 7.073 7.073 0 0 0 4.49 1.657c.443.003.884-.045 1.315-.14 1.108-.256 1.876-.996 2.398-1.5l.124 1.23h1.996V5.53h-2.153v7.513zm-.994 11.49c-.378.328-.947.824-1.848 1.03a4.27 4.27 0 0 1-2.037-.072 4.663 4.663 0 0 1-1.88-.973 5.073 5.073 0 0 1-1.386-1.892 6.413 6.413 0 0 1-.48-2.573v-.042a7.1 7.1 0 0 1 .5-2.762 4.932 4.932 0 0 1 2.274-2.477 5.23 5.23 0 0 1 2.184-.59h.188c.57-.006 1.136.11 1.656.348l.077.032a4.712 4.712 0 0 1 1.745 1.268v7.527c-.272.44-.607.84-.997 1.18l.09.106-.09-.11z"/>
  </g>
</svg>